<svg version="1.2" xmlns="http://www.w3.org/2000/svg" viewBox="0 0 1224 1584" width="1224" height="1584">
	<title>premium</title>
	<defs>
		<linearGradient id="g1" x2="1" gradientUnits="userSpaceOnUse" gradientTransform="matrix(480.016,14.091,-4.098,139.586,394.9,837.95)">
			<stop offset="0" stop-color="#b08662"/>
			<stop offset=".941" stop-color="#fdf2d4"/>
		</linearGradient>
		<linearGradient id="g2" x2="1" gradientUnits="userSpaceOnUse" gradientTransform="matrix(106.644,0,0,131.102,792.136,713.126)">
			<stop offset="0" stop-color="#d8bd9d"/>
			<stop offset="1" stop-color="#cba785"/>
		</linearGradient>
		<linearGradient id="g3" x2="1" gradientUnits="userSpaceOnUse" gradientTransform="matrix(106.644,0,0,131.102,792.136,713.126)">
			<stop offset="0" stop-color="#d8bd9d"/>
			<stop offset="1" stop-color="#cba785"/>
		</linearGradient>
		<linearGradient id="g4" x2="1" gradientUnits="userSpaceOnUse" gradientTransform="matrix(731.703,0,0,847.584,256.291,335.211)">
			<stop offset="0" stop-color="#d8bd9d"/>
			<stop offset="1" stop-color="#cba785"/>
		</linearGradient>
		<linearGradient id="g5" x2="1" gradientUnits="userSpaceOnUse" gradientTransform="matrix(496.419,0,0,189.143,382.463,579.493)">
			<stop offset="0" stop-color="#b08662"/>
			<stop offset=".941" stop-color="#fdf2d4"/>
		</linearGradient>
		<linearGradient id="g6" x2="1" gradientUnits="userSpaceOnUse" gradientTransform="matrix(88.25,0,0,275.514,544.441,415.013)">
			<stop offset="0" stop-color="#d8bd9d"/>
			<stop offset="1" stop-color="#cba785"/>
		</linearGradient>
		<linearGradient id="g7" x2="1" gradientUnits="userSpaceOnUse" gradientTransform="matrix(83.713,0,0,254.55,587.571,415.013)">
			<stop offset="0" stop-color="#d8bd9d"/>
			<stop offset="1" stop-color="#cba785"/>
		</linearGradient>
		<linearGradient id="g8" x2="1" gradientUnits="userSpaceOnUse" gradientTransform="matrix(480.016,14.091,-4.098,139.586,1571.41,697.014)">
			<stop offset="0" stop-color="#b08662"/>
			<stop offset=".941" stop-color="#fdf2d4"/>
		</linearGradient>
		<linearGradient id="g9" x2="1" gradientUnits="userSpaceOnUse" gradientTransform="matrix(106.644,0,0,131.102,1968.646,572.19)">
			<stop offset="0" stop-color="#d8bd9d"/>
			<stop offset="1" stop-color="#cba785"/>
		</linearGradient>
		<linearGradient id="g10" x2="1" gradientUnits="userSpaceOnUse" gradientTransform="matrix(106.644,0,0,131.102,1968.646,572.19)">
			<stop offset="0" stop-color="#d8bd9d"/>
			<stop offset="1" stop-color="#cba785"/>
		</linearGradient>
		<linearGradient id="g11" x2="1" gradientUnits="userSpaceOnUse" gradientTransform="matrix(731.703,0,0,847.584,1432.801,194.274)">
			<stop offset="0" stop-color="#d8bd9d"/>
			<stop offset="1" stop-color="#cba785"/>
		</linearGradient>
		<linearGradient id="g12" x2="1" gradientUnits="userSpaceOnUse" gradientTransform="matrix(496.419,0,0,189.143,1558.974,438.556)">
			<stop offset="0" stop-color="#b08662"/>
			<stop offset=".941" stop-color="#fdf2d4"/>
		</linearGradient>
		<linearGradient id="g13" x2="1" gradientUnits="userSpaceOnUse" gradientTransform="matrix(88.25,0,0,275.514,1720.952,274.077)">
			<stop offset="0" stop-color="#d8bd9d"/>
			<stop offset="1" stop-color="#cba785"/>
		</linearGradient>
		<linearGradient id="g14" x2="1" gradientUnits="userSpaceOnUse" gradientTransform="matrix(83.713,0,0,254.55,1764.082,274.077)">
			<stop offset="0" stop-color="#d8bd9d"/>
			<stop offset="1" stop-color="#cba785"/>
		</linearGradient>
	</defs>
	<style>
		tspan { white-space:pre } 
		.s0 { fill: #121518 } 
		.s1 { opacity: .94;fill: url(#g1) } 
		.s2 { fill: url(#g2);stroke: url(#g3);stroke-miterlimit:10;stroke-width: 2 } 
		.s3 { fill: #fefefe } 
		.s4 { fill: #0e0d11 } 
		.s5 { fill: #4a000d } 
		.s6 { fill: none;stroke: url(#g4);stroke-miterlimit:10;stroke-width: 32 } 
		.t7 { font-size: 60px;fill: #ffffff;font-weight: 400;font-family: "Acme-Regular", "Acme" } 
		.s8 { fill: url(#g5) } 
		.s9 { fill: url(#g6) } 
		.s10 { fill: url(#g7) } 
		.s11 { fill: #fdf5f4 } 
		.t12 { font-size: 42px;fill: #020407;font-weight: 800;font-family: "Blackpast" } 
		.t13 { font-size: 14px;fill: #020407;font-weight: 300;font-family: "Copperplate Gothic" } 
		.s14 { fill: #000001 } 
		.s15 { opacity: .94;fill: url(#g8) } 
		.s16 { fill: url(#g9);stroke: url(#g10);stroke-miterlimit:10;stroke-width: 2 } 
		.s17 { fill: none;stroke: url(#g11);stroke-miterlimit:10;stroke-width: 32 } 
		.t18 { font-size: 60px;fill: #ffffff;font-family: "L EM ON MI LK" } 
		.s19 { fill: url(#g12) } 
		.s20 { fill: url(#g13) } 
		.s21 { fill: url(#g14) } 
	</style>
	<g id="Layer 1">
		<path id="&lt;Path&gt;" class="s0" d="m599.6 1191.2l-357-198.7 0.5-446.4 356.5-202.5 374.7 202.5v446.9z"/>
		<path id="&lt;Path&gt;" class="s1" d="m872.7 927.1c-3.8 42.7-114.2 67.8-246.5 56-132.3-11.7-236.5-55.9-232.7-98.6 1.7-19 24.5-34.5 60.9-44.8q-0.1 0.8-0.1 1.6c-1.3 44.5 73 82.8 166.1 85.6 87.1 2.5 159.7-27.1 169.7-67.4 52.4 18.9 84.7 43.5 82.6 67.6z"/>
		<path id="&lt;Path&gt;" class="s2" d="m896.2 793.7c-9.4 36.1-37.1 53.5-71.5 50.1q-7.3-0.7-15-2.7l-17.6-4.6 6.5-27.4c3.9 1.3 8.1 2.2 12.4 2.6 25.3 2.5 47.4-11.4 49.3-31 2-19.6-16.9-37.6-42.2-40.1q-1.6-0.2-3.2-0.2l1.5-27.3 13.6 0.1c11.7 0 23.3 2.6 33.7 8 27.5 14 41.2 39.1 32.5 72.5z"/>
		<path id="&lt;Path&gt;" class="s3" d="m804.6 719.4c-5.6 81.9-39.1 194.5-179.9 190.4-118.9-3.4-201.4-123.5-209.9-209.1-0.6-6.4-3.2-22.1-2.7-27 27 17.2 108.7 67.7 199.5 69.3 98.2 1.8 165.5-35.7 192.2-52.7 0.5 4.9 1.2 22.7 0.8 29.1z"/>
		<path id="&lt;Path&gt;" class="s4" d="m809.8 722.1c-5.6 81.9-39.1 194.5-179.8 190.4-119-3.4-201.5-123.5-209.9-209-0.7-6.4-3.2-22.2-2.8-27 27 17.1 108.8 67.6 199.5 69.2 98.3 1.8 165.5-35.7 192.2-52.6 0.5 4.8 1.3 22.6 0.8 29z"/>
		<path id="&lt;Path&gt;" class="s5" d=""/>
		<path id="&lt;Path&gt;" class="s6" d="m613.3 1182.8l-357-198.6 0.5-446.5 356.5-202.5 374.7 202.5v447z"/>
		<text id="N1 " style="transform: matrix(2,0,0,2,562.991,865.331)" >
			<tspan x="0" y="0" class="t7">N</tspan><tspan  y="0" class="t7">1</tspan><tspan  y="0" class="t7">
</tspan>
		</text>
		<path id="&lt;Compound Path&gt;" class="s8" d="m673.3 586.6c-0.8 7.7-5.1 16.2-8.5 20.4 46.6 10.8 75.5 30.9 74 53.5-2 29.2-59.8 49.2-129.2 44.6-69.3-4.7-124-32.2-122-61.4 1.8-27.3 47.9-46.5 110.8-45.2-1.1-9.1-4.1-15.5-6.2-19-93.5-0.4-163.1 25.9-164.9 62.3-2.1 39.5 81.1 75.9 185.7 81.4 104.6 5.4 191.1-22.2 193.1-61.7 1.8-33-52.7-62.5-132.8-74.9z"/>
		<g id="&lt;Group&gt;">
			<g id="&lt;Group&gt;">
				<path id="&lt;Path&gt;" class="s9" d="m604.6 415c-7.5 11-14.8 21.5-20.4 32.3-2.8 5.4-5.2 10.9-7 16.3-0.8 2.7-1.7 5.3-2.2 8-0.3 1.3-0.5 2.7-0.7 4-0.1 1.3-0.4 2.6-0.4 3.9-0.4 5.1-0.1 10.1 1 14.8 1.2 4.7 2.8 9.1 5.4 13.4 2.5 4.4 5.6 8.8 9.3 13.2 3.7 4.4 7.7 9 12.1 13.9 4.2 4.9 8.6 10.1 12.8 16 4.2 5.8 8.1 12.4 11 19.8 2.9 7.3 4.8 15.4 5 23.3 0.4 8-0.9 15.9-3.2 23.2-4.6 14.6-13.1 26.5-22.8 36.1-4.9 4.9-10.1 9.2-15.6 13-2.6 2-5.5 3.7-8.3 5.5-2.9 1.7-5.8 3.3-8.8 4.8 1.8-2.9 3.7-5.6 5.4-8.3 1.8-2.8 3.6-5.4 5.3-8.1 1.6-2.8 3.4-5.4 4.9-8.1l2.3-4.1 2.2-4.1c5.7-10.8 9.8-21.9 10.9-32.3 0.3-2.6 0.4-5.2 0.3-7.7 0-1.2-0.1-2.5-0.2-3.7-0.2-1.2-0.2-2.5-0.5-3.7-1-4.8-2.4-9.3-4.7-13.7-2.3-4.4-5-8.8-8.6-13.2-3.4-4.4-7.3-9-11.5-13.7-8.2-9.6-17.8-20.3-24.4-34.6-3.2-7.1-5.5-15-6.1-23-0.8-8 0.2-16.1 2.2-23.5 0.2-0.9 0.4-1.9 0.7-2.8l1-2.6c0.7-1.8 1.3-3.6 2.2-5.3 1.5-3.4 3.3-6.6 5.2-9.7 3.8-6.1 8.4-11.5 13.3-16.3q7.4-7.3 15.7-13c5.5-3.8 11.2-7.2 17.2-10z"/>
			</g>
			<g id="&lt;Group&gt;">
				<g id="&lt;Group&gt;">
					<path id="&lt;Path&gt;" class="s10" d="m604.6 415c-2.3 12.2-3.8 24.3-3.3 36.1 0.4 11.8 2.7 23.2 6.9 33.7 4.2 10.6 10.4 19.9 18.1 28.4 7.6 8.6 16.6 16.3 25.7 25.6 4.4 4.6 8.9 9.8 12.5 16.1 3.6 6.3 6.1 13.9 6.2 21.4 0.2 7.6-1.5 15.1-4.6 21.4-2.9 6.5-7 12-11.3 17-8.7 9.9-18.8 17.7-29.4 24.4-10.6 6.6-21.7 12.3-33.2 17 9.4-8.1 18.9-15.8 27.8-24 8.9-8.2 17.2-16.9 23.7-26.2 3.2-4.6 6-9.4 7.8-14.3 1.8-4.9 2.6-9.8 2.2-14.4-0.4-4.7-1.9-9.1-4.5-13.4-2.6-4.2-6.2-8.4-10.2-12.6-4-4.2-8.4-8.4-12.8-12.8-4.4-4.4-8.9-9.1-12.9-14.2-8.2-10.1-15-22.1-18.5-34.9-3.5-12.7-4.2-26.1-2.3-38.7 1.9-12.7 6.1-24.7 12.1-35.6z"/>
				</g>
				<g id="&lt;Group&gt;">
					<path id="&lt;Path&gt;" class="s11" d="m602.6 418.2c-17 21.6-33.2 50.9-25.4 79.1 2.6 9.2 8.8 16.8 14.7 24.3 11.7 15.2 26.4 28.7 33.8 46.8 7.7 18.1 5 38.5-0.7 56.8 13.9-50.8-4-66.4-34.3-102.6-5.9-7.7-12.1-15.5-14.8-24.9-7.9-28.7 8.8-58.1 26.7-79.5z"/>
				</g>
			</g>
		</g>
		<text id="COFFEE
" style="transform: matrix(2,0,0,2,614.133,1310.531)" >
			<tspan x="-86.2" y="0" class="t12" dx="0 1 1 1 1 1 1" >COFFEE
</tspan>
		</text>
		<text id="premium quality
" style="transform: matrix(2,0,0,2,619.251,1339.189)" >
			<tspan x="-78.2" y="0" class="t13" dx="0 3 3 3 3 3 3 3 3 3 3 3 3 3 3 3" >premium quality
</tspan>
		</text>
		<g id="&lt;Group&gt;">
			<path id="&lt;Path&gt;" class="s14" d="m441.7 1287.6h-68.7"/>
			<path id="&lt;Path&gt;" class="s14" d="m441.7 1287.6c-22.8 1.4-45.9 1.4-68.7 0 22.8-1.3 45.9-1.3 68.7 0z"/>
		</g>
		<g id="&lt;Group&gt;">
			<path id="&lt;Path&gt;" class="s14" d="m856.6 1287.6h-68.8"/>
			<path id="&lt;Path&gt;" class="s14" d="m856.6 1287.6c-22.9 1.4-45.9 1.4-68.8 0 22.9-1.3 45.9-1.3 68.8 0z"/>
		</g>
		<path id="&lt;Path&gt;" class="s0" d="m1776.1 1050.2l-357-198.6 0.5-446.5 356.5-202.5 374.7 202.5v447z"/>
		<path id="&lt;Path&gt;" class="s15" d="m2049.2 786.2c-3.8 42.7-114.2 67.8-246.5 56-132.3-11.8-236.5-55.9-232.7-98.6 1.7-19 24.5-34.5 60.9-44.8q-0.1 0.7-0.1 1.5c-1.3 44.6 73.1 82.9 166.1 85.6 87.1 2.6 159.8-27 169.7-67.4 52.4 19 84.7 43.6 82.6 67.7z"/>
		<path id="&lt;Path&gt;" class="s16" d="m2072.7 652.8c-9.4 36.1-37.1 53.5-71.5 50.1q-7.3-0.8-15-2.8l-17.6-4.5 6.5-27.4c3.9 1.2 8.1 2.1 12.4 2.6 25.3 2.5 47.4-11.4 49.3-31 2-19.7-16.9-37.6-42.2-40.2q-1.6-0.1-3.2-0.2l1.5-27.2h13.6c11.7 0.1 23.3 2.7 33.7 8 27.5 14 41.2 39.1 32.5 72.6z"/>
		<path id="&lt;Path&gt;" class="s3" d="m1981.1 578.5c-5.6 81.8-39.1 194.5-179.9 190.4-118.9-3.5-201.4-123.6-209.9-209.1-0.6-6.4-3.2-22.1-2.7-27 27 17.1 108.8 67.6 199.5 69.3 98.2 1.7 165.5-35.7 192.2-52.7 0.5 4.9 1.3 22.7 0.8 29.1z"/>
		<path id="&lt;Path&gt;" class="s4" d="m1986.3 581.2c-5.6 81.8-39.1 194.5-179.8 190.4-119-3.4-201.4-123.5-209.9-209.1-0.7-6.4-3.2-22.1-2.8-27 27 17.2 108.8 67.7 199.5 69.3 98.3 1.8 165.5-35.7 192.2-52.7 0.5 4.9 1.3 22.7 0.8 29.1z"/>
		<path id="&lt;Path&gt;" class="s5" d=""/>
		<path id="&lt;Path&gt;" class="s17" d="m1789.8 1041.9l-357-198.7 0.5-446.4 356.5-202.5 374.7 202.5v446.9z"/>
		<text id="n1
" style="transform: matrix(2,0,0,2,1884.502,724.394)" >
			<tspan x="0" y="0" class="t18">n1
</tspan>
		</text>
		<path id="&lt;Compound Path&gt;" class="s19" d="m1849.8 445.6c-0.7 7.8-5.1 16.3-8.5 20.4 46.6 10.8 75.5 31 74 53.5-2 29.3-59.8 49.3-129.2 44.6-69.3-4.6-124-32.1-122-61.4 1.8-27.2 47.9-46.4 110.9-45.1-1.2-9.2-4.2-15.5-6.3-19-93.5-0.4-163.1 25.9-164.9 62.3-2.1 39.5 81.1 75.9 185.7 81.3 104.6 5.5 191.1-22.1 193.1-61.6 1.8-33-52.7-62.5-132.8-75z"/>
		<g id="&lt;Group&gt;">
			<g id="&lt;Group&gt;">
				<path id="&lt;Path&gt;" class="s20" d="m1781.1 274.1c-7.4 11-14.8 21.4-20.4 32.3-2.8 5.4-5.2 10.8-7 16.2-0.8 2.8-1.7 5.4-2.2 8.1-0.3 1.3-0.5 2.6-0.6 3.9-0.2 1.3-0.4 2.6-0.5 3.9-0.4 5.2 0 10.2 1 14.9 1.2 4.6 2.8 9.1 5.4 13.4 2.6 4.3 5.6 8.7 9.4 13.1 3.6 4.5 7.7 9.1 12 13.9 4.2 4.9 8.6 10.2 12.9 16 4.1 5.9 8 12.5 10.9 19.8 2.9 7.4 4.8 15.4 5 23.4 0.4 7.9-0.9 15.8-3.1 23.1-4.7 14.7-13.2 26.6-22.9 36.2-4.9 4.9-10.1 9.1-15.5 13-2.7 2-5.6 3.7-8.4 5.5-2.9 1.6-5.8 3.2-8.8 4.7 1.8-2.8 3.7-5.5 5.5-8.2 1.7-2.8 3.5-5.4 5.2-8.2 1.6-2.7 3.4-5.3 4.9-8.1l2.4-4 2.1-4.1c5.7-10.8 9.8-21.9 10.9-32.3 0.4-2.6 0.4-5.2 0.3-7.7 0-1.3-0.1-2.5-0.2-3.7-0.2-1.3-0.2-2.5-0.5-3.7-1-4.8-2.3-9.3-4.7-13.7-2.2-4.4-5-8.8-8.6-13.2-3.4-4.5-7.3-9-11.5-13.7-8.2-9.6-17.8-20.3-24.4-34.6-3.2-7.1-5.5-15.1-6.1-23.1-0.8-8 0.2-16 2.2-23.4 0.2-0.9 0.5-1.9 0.8-2.8l0.9-2.7c0.7-1.8 1.3-3.5 2.2-5.2 1.5-3.4 3.3-6.6 5.2-9.7 3.9-6.1 8.5-11.5 13.3-16.4q7.4-7.3 15.7-12.9c5.5-3.8 11.2-7.2 17.2-10z"/>
			</g>
			<g id="&lt;Group&gt;">
				<g id="&lt;Group&gt;">
					<path id="&lt;Path&gt;" class="s21" d="m1781.1 274.1c-2.3 12.2-3.8 24.2-3.3 36.1 0.4 11.8 2.7 23.2 6.9 33.7 4.2 10.5 10.4 19.9 18.1 28.4 7.6 8.6 16.6 16.3 25.7 25.5 4.4 4.7 8.9 9.8 12.6 16.1 3.5 6.3 6 13.9 6.1 21.5 0.2 7.6-1.5 15-4.6 21.4-2.9 6.4-7 11.9-11.3 16.9-8.7 9.9-18.8 17.7-29.4 24.4-10.6 6.7-21.7 12.3-33.2 17 9.5-8 19-15.8 27.8-24 8.9-8.2 17.2-16.8 23.7-26.1 3.2-4.7 6-9.5 7.8-14.4 1.8-4.9 2.6-9.7 2.2-14.4-0.4-4.7-1.9-9-4.5-13.3-2.6-4.3-6.2-8.5-10.2-12.6-4-4.2-8.4-8.4-12.8-12.8-4.4-4.5-8.9-9.1-12.9-14.2-8.2-10.1-15-22.1-18.5-34.9-3.5-12.8-4.2-26.1-2.3-38.8 1.9-12.6 6.1-24.7 12.1-35.5z"/>
				</g>
				<g id="&lt;Group&gt;">
					<path id="&lt;Path&gt;" class="s11" d="m1779.1 277.3c-17 21.5-33.2 50.9-25.3 79 2.6 9.2 8.7 16.8 14.6 24.4 11.7 15.2 26.4 28.7 33.8 46.7 7.7 18.2 5 38.6-0.7 56.9 13.9-50.8-4-66.4-34.3-102.7-5.9-7.6-12.1-15.4-14.7-24.9-8-28.7 8.7-58 26.6-79.4z"/>
				</g>
			</g>
		</g>
		<g id="&lt;Group&gt;">
			<text id="COFFEE
" style="transform: matrix(2,0,0,2,1790.644,1169.595)" >
				<tspan x="-86.2" y="0" class="t12" dx="0 1 1 1 1 1 1" >COFFEE
</tspan>
			</text>
			<text id="premium quality
" style="transform: matrix(2,0,0,2,1795.762,1198.253)" >
				<tspan x="-78.2" y="0" class="t13" dx="0 3 3 3 3 3 3 3 3 3 3 3 3 3 3 3" >premium quality
</tspan>
			</text>
		</g>
		<g id="&lt;Group&gt;">
			<path id="&lt;Path&gt;" class="s14" d="m1618.3 1146.7h-68.8"/>
			<path id="&lt;Path&gt;" class="s14" d="m1618.3 1146.7c-22.9 1.3-46 1.3-68.8 0 22.8-1.4 45.9-1.4 68.8 0z"/>
		</g>
		<g id="&lt;Group&gt;">
			<path id="&lt;Path&gt;" class="s14" d="m2033.1 1146.7h-68.8"/>
			<path id="&lt;Path&gt;" class="s14" d="m2033.1 1146.7c-22.9 1.3-45.9 1.3-68.8 0 22.9-1.4 45.9-1.4 68.8 0z"/>
		</g>
		<path id="&lt;Path&gt;" class="s5" d=""/>
	</g>
</svg>